{"asset":{"generator":"Khronos glTF Spline I/O v0.0.1","version":"2.0"},"scenes":[{"nodes":[0]}],"nodes":[{"name":"","children":[1,2,3,4,5,6]},{"name":"Phone","matrix":[1.0000000000001419,0,0,0,0,1,2.449293598294706e-16,0,0,-2.4492935982950535e-16,1.0000000000001419,0,0.23222244811924497,-232.65736373979908,-1.479614422464532e-14,1],"children":[7,8]},{"name":"Camera","camera":0,"translation":[0,6.123233995736768e-14,1000],"rotation":[-3.061616997868383e-17,0,0,1]},{"name":"Directional Light 2","translation":[239.83013185130676,-277.7821003565367,204.1689319217548],"rotation":[0.17670815592951147,-0.475071344543708,0.807940369693004,-0.3005225519686618],"extensions":{"KHR_lights_punctual":{"light":0}}},{"name":"Directional Light","translation":[-254.610400149179,269.325914245248,300],"rotation":[-0.40010038397064795,-0.15918364007901767,0.33364711672646585,0.8386058984873943],"extensions":{"KHR_lights_punctual":{"light":1}}},{"name":"Character","matrix":[1,0,0,0,0,1,0,0,0,0,1,0,-331.40058236042876,0,-579.843372747524,1],"children":[9,10]},{"name":"Personal Camera","camera":1,"translation":[23.75989920575309,10.603504223425858,596.2500149935552],"rotation":[-0.04274195217502819,0.015808974388753935,0.0006764093300375651,0.9989608322269006]},{"name":"Body","matrix":[1.0947591602407263,0,0,0,0,1,0,0,0,0,3.0131606190536293,0,-0.232222448119216,-0.31351582992549626,-3.1443122378629473,1],"mesh":0},{"name":"Screen","matrix":[0.04999999999999824,0,0,0,0,0.05,0,0,0,0,0.049999999999998115,0,-0.21970536802405144,-0.5507750472149908,3.1443122378629766,1],"mesh":1},{"name":"Lower Body","matrix":[1,0,0,0,0,1,0,0,0,0,1,0,337.98501419067395,37.445350997805406,-6.3693499968544245,1],"children":[11,12,13]},{"name":"Head","matrix":[1,0,0,0,0,1,0,0,0,0,1,0,338.01663228654263,55.65681918696629,1.7213478088378906,1],"children":[14,15,16,17,18,19,20,21]},{"name":"Logo","matrix":[1,0,0,0,0,1,0,0,0,0,0.8193994308605524,0,-675.0449563598636,-131.50567721786683,-0.4099426269531178,1],"mesh":2},{"name":"Regular","matrix":[1,0,0,0,0,1,0,0,0,0,1,0,0.93,-131.50567721786683,-0.4099426269531179,1],"mesh":3},{"name":"Body","matrix":[1,0,0,0,0,1,0,0,0,0,1,0,0.9275436401367188,-131.50567721786683,-0.4099426269531179,1],"mesh":4},{"name":"Mouth","matrix":[-0.8166415551617205,0.5771451900372631,0,0,-0.5771451900372631,-0.8166415551617205,0,0,0,0,1,0,0.18097433413824524,-10.41,51.2594347012897,1],"mesh":5},{"name":"Eyes","matrix":[1,0,0,0,0,1,0,0,0,0,1,0,0.717565922083601,7.555491101008929,51.16993408263821,1],"children":[22,23]},{"name":"Hair","matrix":[1,0,0,0,0,1,0,0,0,0,1,0,0,40.87253723220241,0,1],"children":[24,25]},{"name":"Glasses","matrix":[1,0,0,0,0,1,0,0,0,0,1,0,1.7545633228279414,7.248359092119699,19.27674912460817,1],"children":[26,27,28,29,30]},{"name":"Eyebrows","matrix":[1,0,0,0,0,1,0,0,0,0,1,0,1.9133378101826075,31.81803890099441,50.16468049582488,1],"children":[31,32]},{"name":"Ears","matrix":[1,0,0,0,0,1,0,0,0,0,1,0,-0.5914543061899309,-0.532933659129144,-0.9541268971629666,1],"children":[33,34]},{"name":"Nose","matrix":[1,0,0,0,0,0.9994101600768737,-0.03434140263757204,0,0,0.03434140263757204,0.9994101600768737,0,1.2237019790669947,-12.956860293485848,55.60674846538825,1],"mesh":6},{"name":"Face","matrix":[1,0,0,0,0,1,0,0,0,0,1,0,1.4036280149718863,-12.20817545960881,-1.9949444714724223,1],"mesh":7},{"name":"Left","matrix":[1,0,0,0,0,0.9994057010116453,-0.03447092666887416,0,0,0.02580401023159026,0.7481282758116351,0,-24.54269504664627,-0.38070490291438036,-0.7042922670343829,1],"mesh":8},{"name":"Right","matrix":[1,0,0,0,0,0.9994057010115796,-0.0344709266688723,0,0,0.02580401023159056,0.7481282758116347,0,24.542695046646276,0.3807049029154541,0.7042922670344184,1],"mesh":9},{"name":"Left","matrix":[1,0,0,0,0,1,0,0,0,0,1,0,-34.3217095908517,-0.1426065540877417,-3.9991416931152344,1],"mesh":10},{"name":"Right","matrix":[-1,0,0,0,0,1,0,0,0,0,1,0,34.32170577615443,-0.2507306956681177,-3.9991416931152344,1],"mesh":11},{"name":"Bridge","matrix":[-8.792966355031261e-16,0.6600000000000016,0,0,-0.14999999999999997,-1.9984014443252823e-16,0,0,0,0,0.5800000000000022,0,-0.30700850966962906,0.6633292601889246,38.45191664080234,0.9999999999999999],"mesh":12},{"name":"Right Stem","matrix":[0.9685631664253722,-0.09970447649700544,0.22791316331118378,0,-0.3156462366678704,-0.19406518164526768,1.2565055346278664,0,-0.061869631380402544,-0.9839274133865584,-0.16750819054387112,0,59.06601854398504,10.807287877756291,-0.39367118166501014,0.9999999999999997],"mesh":13},{"name":"Left Stem","matrix":[0.9685562287163486,-0.0186665406881997,-0.24809351477516803,0,0.315682767479384,-0.23264362786126364,1.249928531049748,0,-0.06186963138040283,-0.9839274133865661,-0.1675081905438735,0,-59.064902442638015,10.792350694325286,0.5624582184565801,1.0000000000000007],"mesh":14},{"name":"Left Frame","matrix":[1,0,0,0,0,1,0,0,0,0,1,0,-27.360369635999284,0,38.097942601349175,1],"mesh":15},{"name":"Right Frame","matrix":[1,0,0,0,0,1,0,0,0,0,1,0,26.55329553352521,0,38.353924209958834,1],"mesh":16},{"name":"Left","matrix":[-0.002948515761705741,-0.9994058157587934,0.03434125335954524,0,0.9839779006110473,0.0032223583762864367,0.1782613461060518,0,-0.17826608584879655,0.034316640773774366,0.9833837352743565,0,-24.799186557510133,-2.584631774122232,-0.20687350561527598,0.9999999999999998],"mesh":17},{"name":"Right","matrix":[-0.0029485157617084113,-0.999405815758795,0.03434125335954564,0,0.9859051242578225,-0.008649888428507557,-0.16708161296905494,0,0.16727938371768822,0.03336457489128116,0.9853448193020308,0,24.797587060622842,-2.2272786445476065,0.5490518874036222,0.9999999999999998],"mesh":18},{"name":"Left","matrix":[-0.9999999999999998,0,0,0,0,0.9999999999999998,0,0,0,0,0.4522956638136099,0,-61.105973048243236,0.45392346098765113,0.8965821552966581,0.9999999999999998],"mesh":19},{"name":"Right","matrix":[0.9999999999999998,0,0,0,0,0.9999999999999998,0,0,0,0,0.4522956638136099,0,61.10597304824323,-1.2639133901868735,0.8965821552966582,0.9999999999999999],"mesh":20}],"cameras":[{"type":"orthographic","orthographic":{"xmag":2056,"ymag":1174,"zfar":100000,"znear":-100000}},{"type":"orthographic","orthographic":{"xmag":2056,"ymag":1174,"zfar":100000,"znear":-100000}}],"meshes":[{"primitives":[{"attributes":{"POSITION":1,"NORMAL":2,"TEXCOORD_0":3},"indices":0}]},{"primitives":[{"attributes":{"POSITION":5,"NORMAL":6,"TEXCOORD_0":7},"indices":4}]},{"primitives":[{"attributes":{"POSITION":9,"NORMAL":10},"indices":8}]},{"primitives":[{"attributes":{"POSITION":12,"NORMAL":13},"indices":11}]},{"primitives":[{"attributes":{"POSITION":15,"NORMAL":16},"indices":14}]},{"primitives":[{"attributes":{"POSITION":18,"NORMAL":19,"TEXCOORD_0":20},"indices":17}]},{"primitives":[{"attributes":{"POSITION":22,"NORMAL":23},"indices":21}]},{"primitives":[{"attributes":{"POSITION":25,"NORMAL":26},"indices":24}]},{"primitives":[{"attributes":{"POSITION":28,"NORMAL":29},"indices":27}]},{"primitives":[{"attributes":{"POSITION":31,"NORMAL":32},"indices":30}]},{"primitives":[{"attributes":{"POSITION":34,"NORMAL":35},"indices":33}]},{"primitives":[{"attributes":{"POSITION":37,"NORMAL":38},"indices":36}]},{"primitives":[{"attributes":{"POSITION":40,"NORMAL":41,"TEXCOORD_0":42},"indices":39}]},{"primitives":[{"attributes":{"POSITION":44,"NORMAL":45},"indices":43}]},{"primitives":[{"attributes":{"POSITION":47,"NORMAL":48,"TEXCOORD_0":49},"indices":46}]},{"primitives":[{"attributes":{"POSITION":51,"NORMAL":52,"TEXCOORD_0":53},"indices":50}]},{"primitives":[{"attributes":{"POSITION":55,"NORMAL":56,"TEXCOORD_0":57},"indices":54}]},{"primitives":[{"attributes":{"POSITION":59,"NORMAL":60},"indices":58}]},{"primitives":[{"attributes":{"POSITION":62,"NORMAL":63},"indices":61}]},{"primitives":[{"attributes":{"POSITION":65,"NORMAL":66},"indices":64}]},{"primitives":[{"attributes":{"POSITION":68,"NORMAL":69},"indices":67}]}],"buffers":[{"uri":"data:application/octet-stream;base64,","byteLength":70800},{"uri":"data:application/octet-stream;base64,","byteLength":7192},{"uri":"data:application/octet-stream;base64,","byteLength":36480},{"uri":"data:application/octet-stream;base64,","byteLength":36480},{"uri":"data:application/octet-stream;base64,","byteLength":92160},{"uri":"data:application/octet-stream;base64,","byteLength":3700},{"uri":"data:application/octet-stream;base64,","byteLength":76800},{"uri":"data:application/octet-stream;base64,","byteLength":46080},{"uri":"data:application/octet-stream;base64,","byteLength":19200},{"uri":"data:application/octet-stream;base64,","byteLength":19200},{"uri":"data:application/octet-stream;base64,","byteLength":24960},{"uri":"data:application/octet-stream;base64,","byteLength":24960},{"uri":"data:application/octet-stream;base64,","byteLength":13952},{"uri":"data:application/octet-stream;base64,","byteLength":19200},{"uri":"data:application/octet-stream;base64,","byteLength":13952},{"uri":"data:application/octet-stream;base64,","byteLength":37088},{"uri":"data:application/octet-stream;base64,","byteLength":37088},{"uri":"data:application/octet-stream;base64,","byteLength":4800},{"uri":"data:application/octet-stream;base64,","byteLength":4800},{"uri":"data:application/octet-stream;base64,","byteLength":107520},{"uri":"data:application/octet-stream;base64,","byteLength":107520}],"bufferViews":[{"buffer":0,"byteOffset":0,"byteLength":7824,"target":34963},{"buffer":0,"byteOffset":7824,"byteLength":20992,"target":34962},{"buffer":0,"byteOffset":28816,"byteLength":20992,"target":34962},{"buffer":0,"byteOffset":49808,"byteLength":20992,"target":34962},{"buffer":1,"byteOffset":0,"byteLength":1944,"target":34963},{"buffer":1,"byteOffset":1944,"byteLength":1968,"target":34962},{"buffer":1,"byteOffset":3912,"byteLength":1968,"target":34962},{"buffer":1,"byteOffset":5880,"byteLength":1312,"target":34962},{"buffer":2,"byteOffset":0,"byteLength":7296,"target":34963},{"buffer":2,"byteOffset":7296,"byteLength":14592,"target":34962},{"buffer":2,"byteOffset":21888,"byteLength":14592,"target":34962},{"buffer":3,"byteOffset":0,"byteLength":7296,"target":34963},{"buffer":3,"byteOffset":7296,"byteLength":14592,"target":34962},{"buffer":3,"byteOffset":21888,"byteLength":14592,"target":34962},{"buffer":4,"byteOffset":0,"byteLength":18432,"target":34963},{"buffer":4,"byteOffset":18432,"byteLength":36864,"target":34962},{"buffer":4,"byteOffset":55296,"byteLength":36864,"target":34962},{"buffer":5,"byteOffset":0,"byteLength":756,"target":34963},{"buffer":5,"byteOffset":756,"byteLength":1104,"target":34962},{"buffer":5,"byteOffset":1860,"byteLength":1104,"target":34962},{"buffer":5,"byteOffset":2964,"byteLength":736,"target":34962},{"buffer":6,"byteOffset":0,"byteLength":15360,"target":34963},{"buffer":6,"byteOffset":15360,"byteLength":30720,"target":34962},{"buffer":6,"byteOffset":46080,"byteLength":30720,"target":34962},{"buffer":7,"byteOffset":0,"byteLength":9216,"target":34963},{"buffer":7,"byteOffset":9216,"byteLength":18432,"target":34962},{"buffer":7,"byteOffset":27648,"byteLength":18432,"target":34962},{"buffer":8,"byteOffset":0,"byteLength":3840,"target":34963},{"buffer":8,"byteOffset":3840,"byteLength":7680,"target":34962},{"buffer":8,"byteOffset":11520,"byteLength":7680,"target":34962},{"buffer":9,"byteOffset":0,"byteLength":3840,"target":34963},{"buffer":9,"byteOffset":3840,"byteLength":7680,"target":34962},{"buffer":9,"byteOffset":11520,"byteLength":7680,"target":34962},{"buffer":10,"byteOffset":0,"byteLength":4992,"target":34963},{"buffer":10,"byteOffset":4992,"byteLength":9984,"target":34962},{"buffer":10,"byteOffset":14976,"byteLength":9984,"target":34962},{"buffer":11,"byteOffset":0,"byteLength":4992,"target":34963},{"buffer":11,"byteOffset":4992,"byteLength":9984,"target":34962},{"buffer":11,"byteOffset":14976,"byteLength":9984,"target":34962},{"buffer":12,"byteOffset":0,"byteLength":1536,"target":34963},{"buffer":12,"byteOffset":1536,"byteLength":4656,"target":34962},{"buffer":12,"byteOffset":6192,"byteLength":4656,"target":34962},{"buffer":12,"byteOffset":10848,"byteLength":3104,"target":34962},{"buffer":13,"byteOffset":0,"byteLength":3840,"target":34963},{"buffer":13,"byteOffset":3840,"byteLength":7680,"target":34962},{"buffer":13,"byteOffset":11520,"byteLength":7680,"target":34962},{"buffer":14,"byteOffset":0,"byteLength":1536,"target":34963},{"buffer":14,"byteOffset":1536,"byteLength":4656,"target":34962},{"buffer":14,"byteOffset":6192,"byteLength":4656,"target":34962},{"buffer":14,"byteOffset":10848,"byteLength":3104,"target":34962},{"buffer":15,"byteOffset":0,"byteLength":9216,"target":34963},{"buffer":15,"byteOffset":9216,"byteLength":10452,"target":34962},{"buffer":15,"byteOffset":19668,"byteLength":10452,"target":34962},{"buffer":15,"byteOffset":30120,"byteLength":6968,"target":34962},{"buffer":16,"byteOffset":0,"byteLength":9216,"target":34963},{"buffer":16,"byteOffset":9216,"byteLength":10452,"target":34962},{"buffer":16,"byteOffset":19668,"byteLength":10452,"target":34962},{"buffer":16,"byteOffset":30120,"byteLength":6968,"target":34962},{"buffer":17,"byteOffset":0,"byteLength":960,"target":34963},{"buffer":17,"byteOffset":960,"byteLength":1920,"target":34962},{"buffer":17,"byteOffset":2880,"byteLength":1920,"target":34962},{"buffer":18,"byteOffset":0,"byteLength":960,"target":34963},{"buffer":18,"byteOffset":960,"byteLength":1920,"target":34962},{"buffer":18,"byteOffset":2880,"byteLength":1920,"target":34962},{"buffer":19,"byteOffset":0,"byteLength":21504,"target":34963},{"buffer":19,"byteOffset":21504,"byteLength":43008,"target":34962},{"buffer":19,"byteOffset":64512,"byteLength":43008,"target":34962},{"buffer":20,"byteOffset":0,"byteLength":21504,"target":34963},{"buffer":20,"byteOffset":21504,"byteLength":43008,"target":34962},{"buffer":20,"byteOffset":64512,"byteLength":43008,"target":34962}],"accessors":[{"bufferView":0,"byteOffset":0,"componentType":5125,"count":1956,"type":"SCALAR","min":[0],"max":[655]},{"bufferView":1,"byteOffset":0,"componentType":5126,"count":656,"type":"VEC3","min":[-27.994184494018555,-63.50569534301758,0],"max":[27.994184494018555,63.50569534301758,2.082582950592041]},{"bufferView":2,"byteOffset":0,"componentType":5126,"count":656,"type":"VEC3","min":[-1,-1,-1],"max":[1,1,1]},{"bufferView":3,"byteOffset":0,"componentType":5126,"count":656,"type":"VEC2","min":[0,0],"max":[1,1]},{"bufferView":4,"byteOffset":0,"componentType":5125,"count":486,"type":"SCALAR","min":[0],"max":[163]},{"bufferView":5,"byteOffset":0,"componentType":5126,"count":164,"type":"VEC3","min":[-554.0542602539062,-1211.0274658203125,0],"max":[554.0542602539062,1211.0274658203125,0]},{"bufferView":6,"byteOffset":0,"componentType":5126,"count":164,"type":"VEC3","min":[0,0,1],"max":[0,0,1]},{"bufferView":7,"byteOffset":0,"componentType":5126,"count":164,"type":"VEC2","min":[0,0],"max":[1,1]},{"bufferView":8,"byteOffset":0,"componentType":5125,"count":1824,"type":"SCALAR","min":[0],"max":[1215]},{"bufferView":9,"byteOffset":0,"componentType":5126,"count":1216,"type":"VEC3","min":[-126.69218444824219,-53.865962982177734,-73.85303497314453],"max":[125.39277648925781,62.3632698059082,75.33319091796875]},{"bufferView":10,"byteOffset":0,"componentType":5126,"count":1216,"type":"VEC3","min":[-0.9986371994018555,-1,-0.9987260699272156],"max":[0.9978864789009094,0.9912621378898621,0.9999945759773254]},{"bufferView":11,"byteOffset":0,"componentType":5125,"count":1824,"type":"SCALAR","min":[0],"max":[1215]},{"bufferView":12,"byteOffset":0,"componentType":5126,"count":1216,"type":"VEC3","min":[-126.69218444824219,-53.865962982177734,-73.85303497314453],"max":[125.39277648925781,62.3632698059082,75.33319091796875]},{"bufferView":13,"byteOffset":0,"componentType":5126,"count":1216,"type":"VEC3","min":[-0.9986371994018555,-1,-0.9987260699272156],"max":[0.9978864789009094,0.9912621378898621,0.9999945759773254]},{"bufferView":14,"byteOffset":0,"componentType":5125,"count":4608,"type":"SCALAR","min":[0],"max":[3071]},{"bufferView":15,"byteOffset":0,"componentType":5126,"count":3072,"type":"VEC3","min":[-104.15084838867188,10.514839172363281,-40.99049377441406],"max":[104.15084838867188,102.36717987060547,54.935508728027344]},{"bufferView":16,"byteOffset":0,"componentType":5126,"count":3072,"type":"VEC3","min":[-1,-3.609418968153477e-7,-1],"max":[1,1,1]},{"bufferView":17,"byteOffset":0,"componentType":5123,"count":378,"type":"SCALAR","min":[1],"max":[90]},{"bufferView":18,"byteOffset":0,"componentType":5126,"count":92,"type":"VEC3","min":[-35.87007141113281,6.1879496574401855,-3.0315890312194824],"max":[3.1150076389312744,36.619998931884766,3.0315890312194824]},{"bufferView":19,"byteOffset":0,"componentType":5126,"count":92,"type":"VEC3","min":[-0.9722269177436829,-0.9490690231323242,-0.8657560348510742],"max":[1,1,0.8657561540603638]},{"bufferView":20,"byteOffset":0,"componentType":5126,"count":92,"type":"VEC2","min":[0,0],"max":[1,1]},{"bufferView":21,"byteOffset":0,"componentType":5125,"count":3840,"type":"SCALAR","min":[0],"max":[2559]},{"bufferView":22,"byteOffset":0,"componentType":5126,"count":2560,"type":"VEC3","min":[-9.665098190307617,-10.18440055847168,-4.868104934692383],"max":[9.665626525878906,10.050552368164062,4.868104934692383]},{"bufferView":23,"byteOffset":0,"componentType":5126,"count":2560,"type":"VEC3","min":[-0.992161214351654,-0.9997791647911072,-0.9999489784240723],"max":[0.9914654493331909,1,0.9999489784240723]},{"bufferView":24,"byteOffset":0,"componentType":5125,"count":2304,"type":"SCALAR","min":[0],"max":[1535]},{"bufferView":25,"byteOffset":0,"componentType":5126,"count":1536,"type":"VEC3","min":[-63.3960075378418,-67.55243682861328,-61.88127136230469],"max":[63.3960075378418,78.54872131347656,55.78163146972656]},{"bufferView":26,"byteOffset":0,"componentType":5126,"count":1536,"type":"VEC3","min":[-0.999832272529602,-0.9913918972015381,-0.9986224174499512],"max":[0.999832272529602,0.9999998807907104,0.9999932050704956]},{"bufferView":27,"byteOffset":0,"componentType":5125,"count":960,"type":"SCALAR","min":[0],"max":[639]},{"bufferView":28,"byteOffset":0,"componentType":5126,"count":640,"type":"VEC3","min":[-7.884577751159668,-15.469371795654297,-5.15625],"max":[7.884577751159668,15.469371795654297,5.15625]},{"bufferView":29,"byteOffset":0,"componentType":5126,"count":640,"type":"VEC3","min":[-1,-1,-1],"max":[1,1,1]},{"bufferView":30,"byteOffset":0,"componentType":5125,"count":960,"type":"SCALAR","min":[0],"max":[639]},{"bufferView":31,"byteOffset":0,"componentType":5126,"count":640,"type":"VEC3","min":[-7.884577751159668,-15.469371795654297,-5.15625],"max":[7.884577751159668,15.469371795654297,5.15625]},{"bufferView":32,"byteOffset":0,"componentType":5126,"count":640,"type":"VEC3","min":[-1,-1,-1],"max":[1,1,1]},{"bufferView":33,"byteOffset":0,"componentType":5125,"count":1248,"type":"SCALAR","min":[0],"max":[831]},{"bufferView":34,"byteOffset":0,"componentType":5126,"count":832,"type":"VEC3","min":[-49.4690055847168,-43.202186584472656,-76.48153686523438],"max":[59.35101318359375,51.35261535644531,80.07142639160156]},{"bufferView":35,"byteOffset":0,"componentType":5126,"count":832,"type":"VEC3","min":[-0.9880285859107971,-0.9939814805984497,-0.9850534200668335],"max":[0.987060010433197,0.9993770122528076,0.943272054195404]},{"bufferView":36,"byteOffset":0,"componentType":5125,"count":1248,"type":"SCALAR","min":[0],"max":[831]},{"bufferView":37,"byteOffset":0,"componentType":5126,"count":832,"type":"VEC3","min":[-49.4690055847168,-42.43798065185547,-79.20848083496094],"max":[59.35101318359375,51.35261535644531,79.52255249023438]},{"bufferView":38,"byteOffset":0,"componentType":5126,"count":832,"type":"VEC3","min":[-0.9833511114120483,-0.9969125986099243,-0.9989935159683228],"max":[0.9833295345306396,0.9993770122528076,0.9747887253761292]},{"bufferView":39,"byteOffset":0,"componentType":5123,"count":768,"type":"SCALAR","min":[0],"max":[387]},{"bufferView":40,"byteOffset":0,"componentType":5126,"count":388,"type":"VEC3","min":[-1.701717734336853,-30.884445190429688,-1.5542991161346436],"max":[1.701717734336853,30.884445190429688,1.5542991161346436]},{"bufferView":41,"byteOffset":0,"componentType":5126,"count":388,"type":"VEC3","min":[-1,-1,-1],"max":[1,1,1]},{"bufferView":42,"byteOffset":0,"componentType":5126,"count":388,"type":"VEC2","min":[0,0],"max":[1,1]},{"bufferView":43,"byteOffset":0,"componentType":5125,"count":960,"type":"SCALAR","min":[0],"max":[639]},{"bufferView":44,"byteOffset":0,"componentType":5126,"count":640,"type":"VEC3","min":[-1.669333815574646,-30.88444709777832,-1.5247206687927246],"max":[1.669333815574646,30.88444709777832,1.5247206687927246]},{"bufferView":45,"byteOffset":0,"componentType":5126,"count":640,"type":"VEC3","min":[-1,-1,-1],"max":[1,1,1]},{"bufferView":46,"byteOffset":0,"componentType":5123,"count":768,"type":"SCALAR","min":[0],"max":[387]},{"bufferView":47,"byteOffset":0,"componentType":5126,"count":388,"type":"VEC3","min":[-1.701717734336853,-30.884445190429688,-1.5542991161346436],"max":[1.701717734336853,30.884445190429688,1.5542991161346436]},{"bufferView":48,"byteOffset":0,"componentType":5126,"count":388,"type":"VEC3","min":[-1,-1,-1],"max":[1,1,1]},{"bufferView":49,"byteOffset":0,"componentType":5126,"count":388,"type":"VEC2","min":[0,0],"max":[1,1]},{"bufferView":50,"byteOffset":0,"componentType":5123,"count":4608,"type":"SCALAR","min":[13],"max":[844]},{"bufferView":51,"byteOffset":0,"componentType":5126,"count":871,"type":"VEC3","min":[-23.317291259765625,-22.3958683013916,-1.500499963760376],"max":[23.317291259765625,22.3958683013916,1.500499963760376]},{"bufferView":52,"byteOffset":0,"componentType":5126,"count":871,"type":"VEC3","min":[-1,-1,-1],"max":[1,1,1]},{"bufferView":53,"byteOffset":0,"componentType":5126,"count":871,"type":"VEC2","min":[0,0],"max":[0.989287793636322,1]},{"bufferView":54,"byteOffset":0,"componentType":5123,"count":4608,"type":"SCALAR","min":[13],"max":[844]},{"bufferView":55,"byteOffset":0,"componentType":5126,"count":871,"type":"VEC3","min":[-23.317291259765625,-22.3958683013916,-1.500499963760376],"max":[23.317291259765625,22.3958683013916,1.500499963760376]},{"bufferView":56,"byteOffset":0,"componentType":5126,"count":871,"type":"VEC3","min":[-1,-1,-1],"max":[1,1,1]},{"bufferView":57,"byteOffset":0,"componentType":5126,"count":871,"type":"VEC2","min":[0,0],"max":[0.989287793636322,1]},{"bufferView":58,"byteOffset":0,"componentType":5125,"count":240,"type":"SCALAR","min":[0],"max":[159]},{"bufferView":59,"byteOffset":0,"componentType":5126,"count":160,"type":"VEC3","min":[-7.161953926086426,-16.7995662689209,-4.070000171661377],"max":[2.121367931365967,16.7995662689209,4.070000171661377]},{"bufferView":60,"byteOffset":0,"componentType":5126,"count":160,"type":"VEC3","min":[-1,-0.9953802824020386,-1],"max":[1,0.9953802824020386,1]},{"bufferView":61,"byteOffset":0,"componentType":5125,"count":240,"type":"SCALAR","min":[0],"max":[159]},{"bufferView":62,"byteOffset":0,"componentType":5126,"count":160,"type":"VEC3","min":[-7.161953926086426,-16.7995662689209,-4.070000171661377],"max":[2.121367931365967,16.7995662689209,4.070000171661377]},{"bufferView":63,"byteOffset":0,"componentType":5126,"count":160,"type":"VEC3","min":[-1,-0.9953802824020386,-1],"max":[1,0.9953802824020386,1]},{"bufferView":64,"byteOffset":0,"componentType":5125,"count":5376,"type":"SCALAR","min":[0],"max":[3583]},{"bufferView":65,"byteOffset":0,"componentType":5126,"count":3584,"type":"VEC3","min":[-18.583099365234375,-19.289302825927734,-17.707077026367188],"max":[15.44847583770752,21.030864715576172,15.749338150024414]},{"bufferView":66,"byteOffset":0,"componentType":5126,"count":3584,"type":"VEC3","min":[-0.9997637271881104,-0.9974145889282227,-1],"max":[0.996731698513031,0.9996770620346069,1]},{"bufferView":67,"byteOffset":0,"componentType":5125,"count":5376,"type":"SCALAR","min":[0],"max":[3583]},{"bufferView":68,"byteOffset":0,"componentType":5126,"count":3584,"type":"VEC3","min":[-18.583099365234375,-19.289302825927734,-17.707077026367188],"max":[15.44847583770752,21.030864715576172,15.749338150024414]},{"bufferView":69,"byteOffset":0,"componentType":5126,"count":3584,"type":"VEC3","min":[-0.9997637271881104,-0.9974145889282227,-1],"max":[0.996731698513031,0.9996770620346069,1]}],"extensions":{"KHR_lights_punctual":{"lights":[{"type":"directional","name":"Directional Light 2","color":[0.2463317309202876,0.2005844094636629,0.5436893203883495],"intensity":0.7},{"type":"directional","name":"Directional Light","color":[1,1,1],"intensity":0.7}]}},"extensionsUsed":["KHR_lights_punctual"]}